<svg xmlns="http://www.w3.org/2000/svg" viewBox="0 0 600 400">
  <defs>
    <filter id="shadow" x="-20%" y="-20%" width="140%" height="140%">
      <feGaussianBlur in="SourceAlpha" stdDeviation="3"/>
      <feOffset dx="2" dy="2" result="offsetblur"/>
      <feComponentTransfer>
        <feFuncA type="linear" slope="0.5"/>
      </feComponentTransfer>
      <feMerge> 
        <feMergeNode/>
        <feMergeNode in="SourceGraphic"/> 
      </feMerge>
    </filter>
  </defs>
  
  <!-- Main cloud shape -->
  <path d="M 150 250 C 50 250, 50 150, 150 150 C 150 50, 250 50, 250 150 C 350 150, 350 100, 450 150 C 550 150, 550 250, 450 250 Z" fill="#C7D2FE" filter="url(#shadow)"/>
  
  <!-- Inner "app window" -->
  <rect x="160" y="160" width="280" height="150" rx="10" fill="#fff" stroke="#A5B4FC" stroke-width="2"/>
  <circle cx="175" cy="175" r="5" fill="#EF4444"/>
  <circle cx="190" cy="175" r="5" fill="#F59E0B"/>
  <circle cx="205" cy="175" r="5" fill="#10B981"/>
  
  <!-- Content inside window -->
  <rect x="175" y="195" width="250" height="15" rx="3" fill="#E5E7EB"/>
  <rect x="175" y="220" width="180" height="15" rx="3" fill="#E5E7EB"/>
  <rect x="175" y="245" width="220" height="15" rx="3" fill="#E5E7EB"/>
  
  <!-- Smaller cloud decorations -->
  <path d="M 80 180 C 40 180, 40 140, 80 140 C 80 100, 120 100, 120 140 C 160 140, 160 180, 120 180 Z" fill="#A5B4FC" opacity="0.7"/>
  <path d="M 480 220 C 440 220, 440 180, 480 180 C 480 140, 520 140, 520 180 C 560 180, 560 220, 520 220 Z" fill="#A5B4FC" opacity="0.7"/>
</svg>
