<svg width="40" height="40" viewBox="0 0 40 40" fill="none" xmlns="http://www.w3.org/2000/svg">
  <path d="M12.964 32.5C12.424 35.16 14.656 37.5 17.38 37.5C20.104 37.5 22.336 35.16 21.796 32.5L17.38 2.5C16.84 -0.16 13.888 -0.16 13.348 2.5L12.964 32.5Z" fill="#6366F1"/>
  <path d="M32.332 27.5C35.056 27.5 37.288 29.84 36.748 32.5L32.332 2.5C31.792 -0.16 28.84 -0.16 28.3 2.5L27.916 27.5C27.376 30.16 29.608 32.5 32.332 32.5Z" fill="#A5B4FC"/>
  <path d="M7.62 32.5C4.896 32.5 2.664 30.16 3.204 27.5L7.62 2.5C8.16 -0.16 11.112 -0.16 11.652 2.5L12.036 27.5C12.576 30.16 10.344 32.5 7.62 32.5Z" fill="#A5B4FC"/>
</svg>
